<svg xmlns="http://www.w3.org/2000/svg" data-name="Layer 1" viewBox="0 0 64 41.36"><path d="M51.35 11.13A37.565 37.565 0 0 1 43.83.39c-.3-.65-1.28-.44-1.28.28v18.29c0 .47-.48.79-.92.62a37.438 37.438 0 0 1-12.93-8.45A37.565 37.565 0 0 1 21.18.39c-.3-.65-1.28-.44-1.28.28v17.92c0 .61-.49 1.11-1.11 1.11H.65c-.72 0-.93.97-.28 1.28 3.89 1.8 7.53 4.54 10.73 7.74 3.61 3.61 6.34 7.78 8.17 12.23.23.56 1.01.56 1.24 0 1.83-4.45 4.56-8.62 8.17-12.23.64-.64 1.31-1.26 1.98-1.84.31-.27.78-.27 1.09 0 .68.59 1.34 1.2 1.98 1.84 3.61 3.61 6.34 7.78 8.17 12.23.23.56 1.01.56 1.24 0 1.83-4.45 4.56-8.62 8.17-12.23 3.61-3.61 7.78-6.34 12.23-8.17a.668.668 0 0 0 0-1.24 37.397 37.397 0 0 1-12.23-8.17Z" style="fill:#006aff"/></svg>