<svg xmlns="http://www.w3.org/2000/svg" width="32" height="32" fill="none"><path fill="#00005b" d="M2 12.133c0-3.547 0-5.32.69-6.675A6.333 6.333 0 0 1 5.458 2.69C6.813 2 8.586 2 12.133 2h7.734c3.547 0 5.32 0 6.675.69a6.333 6.333 0 0 1 2.768 2.768c.69 1.355.69 3.128.69 6.675v7.734c0 3.547 0 5.32-.69 6.675a6.333 6.333 0 0 1-2.768 2.768c-1.355.69-3.128.69-6.675.69h-7.734c-3.547 0-5.32 0-6.675-.69a6.333 6.333 0 0 1-2.768-2.768C2 25.187 2 23.414 2 19.867z"/><path fill="#99f" d="M13.79 19.564H9.45l-.882 2.818a.224.224 0 0 1-.226.173H6.145c-.126 0-.17-.07-.132-.212l3.757-11.05c.037-.116.075-.229.112-.377a4.23 4.23 0 0 0 .076-.78c-.011-.077.056-.146.131-.135h2.987c.087 0 .137.032.15.097l4.264 12.265c.037.128 0 .192-.113.192h-2.442a.176.176 0 0 1-.188-.135zm-3.663-2.376h2.967c-.487-1.666-1.037-3.31-1.483-4.99-.506 1.742-.973 3.357-1.484 4.99zm10.533 1.288c.173 1.43 1.375 2.113 2.706 2.084.75-.015 1.552-.131 2.253-.415.062-.051.094-.02.094.096v1.83a.249.249 0 0 1-.113.231c-.871.396-1.872.516-2.817.5-2.818 0-4.753-1.985-4.752-4.873-.007-2.738 1.769-5.047 4.527-5.047 2.338-.06 3.957 1.811 3.963 4.141 0 .424-.024.85-.075 1.272a.174.174 0 0 1-.169.154c-1.867 0-3.744.027-5.616.027zm0-1.755c1.041 0 2.088.037 3.128-.01.156-.016.273-.046.273-.208-.022-.864-.751-1.574-1.597-1.541-1.022-.064-1.676.8-1.803 1.759z"/></svg>