<svg xmlns="http://www.w3.org/2000/svg" id="Layer_2" data-name="Layer 2" viewBox="0 0 1848.68 2279.4"><defs><style>.cls-1{fill-rule:evenodd}</style></defs><g id="Layer_1-2" data-name="Layer 1"><path d="M765.24 1821.21c0 15.1 0 51.17-23.25 62.8s-27.91 26.74-25.59 36.04 12.79 19.78 31.4 25.59c18.61 5.82 53.5 17.46 157 93.05 18.6 11.62 37.22 4.63 43.02-2.33 5.82-6.96 8.16-26.74-6.96-44.2-16.48-19-33.72-48.84-33.72-93.02v-433.8h105.82c25.59 0 51.17 6.99 59.32 51.17 6.96 29.08 47.68 33.75 47.68 2.33v-233.75c0-25.59-45.37-23.25-51.17 2.33-5.82 25.59-6.99 70.96-41.88 70.96H907.13v-234.95h130.24c19.78 0 39.54 6.98 51.17 23.25 11.65 16.29 47.7 59.32 72.12 48.84 11.62-4.63 17.43-16.29 11.62-38.38l-54.67-147.69H741.98c-23.25 0-34.89 8.14-37.22 18.61-2.32 10.47 4.66 30.25 20.93 38.38 16.28 8.14 39.54 24.42 39.54 61.65v693.12Z" class="cls-1"/><path d="M1232.75 1722.35c0 16.29 0 55.83-23.25 74.45-23.25 18.6-80.26 72.1-55.83 104.64 9.33 12.79 34.9 9.33 67.46-2.31 32.58-11.62 127.92-15.12 162.81-13.96 34.9 1.17 200.05 31.39 265.17-164 43.03-134.89-17.46-294.23-138.39-296.55-68.62-1.17-102.34 33.75-108.17 83.75s34.88 124.43 122.12 110.48c24.42-4.63 30.22 3.5 30.22 23.28s-6.96 139.55-120.93 139.55c-18.62 0-46.54 1.17-59.32 1.17v-638.49c0-30.23 36.04-72.1 60.49-88.38 18.6-11.62 17.43-46.52-4.66-46.52h-248.88c-16.29 0-32.55 18.61-9.3 43.03s60.47 43.02 60.47 96.52v573.34Zm451.71 395.79h70.49v10.39h-29.38v76.46h-11.74v-76.46h-29.38v-10.39Zm152.85 86.85v-51.3c0-2.53.26-13.53.26-21.63h-.26l-24.42 72.93h-11.62l-24.42-72.8h-.26c0 7.98.26 18.97.26 21.5v51.3h-11.37v-86.83h16.82l24.8 73.41h.23l24.67-73.41h16.69v86.83h-11.37ZM163.99 1009.45c-17.44 0-34.89 8.14-38.38 23.25-2.93 12.68 0 32.57 18.61 40.71s46.52 24.42 46.52 67.46v518.67c0 19.78-2.33 47.68-29.08 44.2-26.74-3.5-33.73 9.3-34.89 17.43-1.17 8.16 3.49 62.83 80.24 112.82 25.59 16.26 97.69 63.97 126.77 40.69 13.96-10.47-1.17-60.47-15.12-76.73-13.96-16.29-23.25-36.07-23.25-63.99v-407.03l200.03 522.19c13.96 34.88 58.14 68.6 90.71 58.13s37.22-36.04 37.22-57v-722.17c0-20.93 1.15-39.54 41.87-61.65 20.93-9.3 29.08-56.99-8.13-56.99H448.95c-24.42 0-40.71 30.23-17.44 48.84 23.25 18.61 70.94 41.87 70.94 80.26v336.1l-155.88-405.88c-12.79-31.4-34.89-59.31-59.31-59.31H164v-.01Z" class="cls-1"/><path d="m976.66 590.28 14.85 36.69c2.07 5.14 7.92 7.63 13.06 5.55l2.26-.56c5.14-2.09 7.62-7.94 5.55-13.09l-14.82-36.69c-2.09-5.14-7.95-7.63-13.1-5.55l-2.23.56c-5.15 2.07-7.65 7.92-5.58 13.07v.01Zm-232.35 95.87zm211.73-45.24c2.07 5.14 7.91 7.64 13.06 5.57h.02l2.26-.56c5.14-2.09 7.62-7.94 5.55-13.09l-14.85-36.69c-2.08-5.14-7.93-7.62-13.07-5.55l-2.26.56c-5.14 2.08-7.62 7.93-5.55 13.07l14.85 36.69Zm70.93-27.89c2.08 5.15 7.94 7.64 13.08 5.56h.02l2.23-.56c5.13-2.05 7.63-7.88 5.58-13.01 0-.02-.02-.05-.03-.07l-14.82-36.68c-2.08-5.14-7.93-7.62-13.07-5.55l-2.26.56c-5.14 2.08-7.62 7.93-5.55 13.07l14.82 36.69Zm-248.28 97.7c2.08 5.14 7.93 7.62 13.07 5.55l2.26-.57c5.14-2.09 7.62-7.94 5.55-13.09l-14.84-36.68c-2.08-5.15-7.94-7.63-13.09-5.55l-2.24.56c-5.14 2.09-7.62 7.94-5.55 13.09l14.84 36.69Zm56.11-64.62 14.84 36.69c2.08 5.14 7.93 7.62 13.07 5.55l2.26-.56c5.14-2.08 7.62-7.93 5.55-13.07l-14.84-36.69c-2.09-5.14-7.94-7.62-13.09-5.55l-2.24.56c-5.14 2.07-7.63 7.92-5.55 13.06Zm-35.47 13.97 14.84 36.69c2.08 5.15 7.94 7.63 13.09 5.55l2.24-.57c5.14-2.07 7.63-7.92 5.55-13.07l-14.84-36.69c-2.08-5.14-7.93-7.62-13.07-5.55l-2.26.56c-5.15 2.08-7.63 7.94-5.55 13.09Z"/><path d="M902.48 0C797.8 241.9 365.18 432.62 0 176.78v1588.59c0 248.89 207.01 286.1 316.33 286.1 381.44 0 518.69 158.14 583.81 227.93 65.12-69.79 207.01-227.93 588.45-227.93 109.34 0 316.35-37.22 316.35-286.1V176.76C1439.76 432.62 1007.14 241.89 902.48 0Zm528.94 403.13 19.44-59.67 19.44 59.67h63.1l-51.06 37.05 19.49 60-51.05-37.13-50.83 36.96 19.44-59.75-51.23-37.13h63.25Zm-.15 202.35 19.43-59.67 19.45 59.67h63.25l-51.24 37.13 19.45 59.76-50.84-36.98-51.06 37.13 19.52-60-51.06-37.05h63.1Zm0 200.03 19.43-59.67 19.45 59.67h63.25l-51.24 37.13 19.45 59.76-50.84-36.98-51.06 37.13 19.52-60-51.06-37.05h63.1Zm-145.97 96.9-50.84-36.98-51.06 37.13 19.53-60-51.07-37.05h63.07l19.45-59.67 19.45 59.67h63.25l-51.24 37.13 19.45 59.76Zm.02-200.05-50.84-36.98-51.07 37.13 6.33-21.63c27.89-42.99 45.93-81.37 51.55-113.67l12.57 38.26h63.25l-51.24 37.13 19.45 59.75Zm-70.39-299.23 19.45-59.67 19.45 59.67h63.25l-51.24 37.13 19.45 59.75-50.84-36.98-10.69 7.15c-7.78-5.65-16.21-12.06-24.14-16.91l3.29-13.09-51.07-37.05h63.07Zm-196.84-59.66 21.18 60.26a454.54 454.54 0 0 0-41.43-1.47l20.25-58.79ZM888.36 203.09l19.44-59.67 19.44 59.67h63.1l-51.06 37.05 19.49 60-51.05-37.13-50.83 36.96 19.44-59.75-51.23-37.13h63.25ZM767.41 403.14l19.45-59.67 19.44 59.67h63.08l-49.91 34.73c-36.37 13.15-64.12 27.64-74.02 33.53l9.93-31.13-51.24-37.13h63.25Zm58.28 58.57c195.39-80.24 365.16 1.17 387.28 36.06l-160.5 65.7 10.47 26.74 162.84-64.55c-17.46 130.26-105.46 218.01-237.26 287.25-137.22 72.1-331.44 54.65-396.56-32.57l163.98-66.29-11.62-27.91-165.16 66.3c-3.49-66.29 67.44-226.78 246.54-290.74Zm243.29 440.7-50.82-36.98-51.08 37.13 19.53-60-.23-1.54a399.321 399.321 0 0 0 56.22-31c.99-.65 5.47-4.2 6.46-4.85l51.7.35-51.22 37.13 19.43 59.75Zm-231.12.16-29.42-20.48c6.29-.4 17.41-.88 23.63-1.52l5.78 22Zm-72.05-20.26-29.86 20.1 7.21-22.22c7.73.7 14.88 1.85 22.65 2.11ZM487.84 605.48h63.25l19.45-59.67 19.44 59.67 13.01.58c-13.2 20.32-23.16 41.23-30.79 59.91l-52.57 36.39 19.44-59.75-51.24-37.13Zm63.26-202.35 19.45-59.67 19.44 59.67h63.1l-51.07 37.05 19.52 60-51.06-37.13-50.83 36.96 19.44-59.75-51.24-37.13h63.25Zm-.01 402.4 7.13-25.16c11.65 27.9 32.58 40.69 54.1 54.95s-10.3 7.25-10.3 7.25l19.52 60-51.07-37.13-50.83 36.98 19.44-59.75-51.24-37.13h63.25Zm-216.3-402.4 19.45-59.67 19.44 59.67h63.08l-51.07 37.05 19.53 60-51.07-37.13-50.82 36.96 19.44-59.75-51.24-37.13h63.25Zm70.41 499.44-51.05-37.13-50.83 36.96 19.44-59.75-51.23-37.13h63.25l19.44-59.67 19.44 59.67h63.1l-51.06 37.05 19.49 60Zm.03-200.04-51.07-37.13-50.82 36.98 19.44-59.76-51.24-37.13h63.25l19.45-59.67 19.44 59.67h63.08l-51.07 37.05 19.53 60Zm-286.75-299.4 19.44-59.67 19.45 59.67h63.08l-51.07 37.05 19.53 60-51.07-37.13-50.83 36.96 19.45-59.75-51.24-37.13h63.25Zm70.44 299.4-51.07-37.13-50.83 36.98 19.45-59.76-51.24-37.13h63.25l19.44-59.67 19.45 59.67h63.08l-51.07 37.05 19.53 60ZM55.23 805.51h63.25l19.44-59.67 19.45 59.67h63.08l-51.07 37.05 19.53 60-51.07-37.13-50.83 36.98 19.45-59.76-51.24-37.13Zm1661.32 938.95c0 169.77-90.71 218.63-255.88 218.63-320.98 2.33-481.45 113.97-558.21 186.06-76.76-72.1-237.24-183.73-558.23-186.06-165.14 0-255.85-48.87-255.85-218.63V958.28h1628.17v786.18Zm-18.08-901.81 19.45 59.76-50.82-36.98-51.1 37.13 19.53-60-51.06-37.05h63.1l19.43-59.67 19.45 59.67h63.25l-51.24 37.13Zm0-200.04 19.45 59.76-50.82-36.98-51.1 37.13 19.53-60-51.06-37.05h63.1L1667 545.8l19.45 59.67h63.25l-51.24 37.13Zm0-202.35 19.45 59.75-50.82-36.96-51.1 37.13 19.53-60-51.06-37.05h63.1l19.43-59.67 19.45 59.67h63.25l-51.24 37.13Z"/><path d="m905.74 618.19 14.85 36.69c2.08 5.14 7.93 7.63 13.07 5.56l2.22-.57c5.15-2.07 7.65-7.92 5.58-13.07v-.01l-14.85-36.69c-2.08-5.14-7.93-7.62-13.07-5.55l-2.24.57c-5.14 2.07-7.63 7.92-5.55 13.07Zm-20.62 50.66c2.09 5.14 7.94 7.62 13.09 5.55l2.22-.57c5.14-2.08 7.62-7.93 5.55-13.07l-14.82-36.69c-2.08-5.14-7.93-7.62-13.07-5.55l-2.24.56c-5.15 2.08-7.63 7.94-5.55 13.09l14.84 36.69Z"/></g></svg>