<svg xmlns="http://www.w3.org/2000/svg" data-name="logosandtypes com" viewBox="0 0 150 150"><path d="M0 .2h150v150H0Z" data-name="Layer 3" style="fill:none" transform="translate(0 -.2)"/><path d="M19.18 23.33a7.46 7.46 0 0 0 7.5 7.42h62.16c20.52-1.39 33.1 24.78 17.5 38.65q-6.87 5.88-17.5 5.87h-27a7.43 7.43 0 1 0 0 14.85h29.83l26.87 42.66a7.92 7.92 0 0 0 7 3.87c6.85.23 10-6.88 6.25-12.37l-23.9-38c37.3-17.51 21.54-71.94-19.07-70.34H26.68a7.47 7.47 0 0 0-7.5 7.39Z" style="fill-rule:evenodd" transform="translate(0 -.2)"/></svg>