<svg xmlns="http://www.w3.org/2000/svg" id="Layer_1" data-name="Layer 1" viewBox="0 0 247 173.14"><defs><style>.cls-1{fill:#1b1464}.cls-12,.cls-4{letter-spacing:.02em}</style></defs><text style="font-family:RadioCanadaBig-Regular,&quot;Radio Canada Big&quot;;font-size:7.24px;font-variation-settings:&quot;wght&quot;400" transform="translate(49.53 167.87)"><tspan x="0" y="0" class="cls-4">e</tspan><tspan x="4.12" y="0">n </tspan><tspan x="9.86" y="0" class="cls-12">c</tspan><tspan x="13.74" y="0" style="letter-spacing:.02em">o</tspan><tspan x="17.94" y="0" style="letter-spacing:.02em">ll</tspan><tspan x="21.52" y="0" class="cls-12">a</tspan><tspan x="25.52" y="0" style="letter-spacing:.02em">b</tspan><tspan x="29.81" y="0" class="cls-4">o</tspan><tspan x="34" y="0" style="letter-spacing:.02em">r</tspan><tspan x="36.67" y="0" style="letter-spacing:.01em">a</tspan><tspan x="40.65" y="0" style="letter-spacing:.01em">t</tspan><tspan x="43.41" y="0" style="letter-spacing:.02em">i</tspan><tspan x="45.2" y="0" class="cls-4">o</tspan><tspan x="49.39" y="0">n </tspan><tspan x="55.14" y="0" style="letter-spacing:0">a</tspan><tspan x="59.05" y="0" style="letter-spacing:0">v</tspan><tspan x="62.78" y="0" style="letter-spacing:.02em">e</tspan><tspan x="66.92" y="0" style="letter-spacing:0">c</tspan></text><path d="M149.66 162.15h-2.57v7.72h2.7c2.41 0 3.97-1.51 3.97-3.85s-1.61-3.87-4.01-3.87m-.09 6.43h-.86v-5.15h1.1c1.44 0 2.48 1.09 2.48 2.58s-1.05 2.56-2.55 2.56m-19.47-6.2v7.18l6.22 3.59 6.22-3.59v-7.18l-6.22-3.59-6.22 3.59Zm10.72.99v5.2l-4.5 2.6-4.5-2.6v-5.2l4.5-2.6 4.5 2.6Zm44-.62c0 .45-.37.82-.82.82s-.82-.37-.82-.82.37-.82.82-.82.82.37.82.82m-.26 1.55h-1.29v5.57h1.29v-5.57Zm-22.02 2.27c-.6-.23-.79-.34-.79-.6 0-.24.19-.38.52-.38.53 0 .93.29 1.29.61l.81-.87c-.52-.56-1.3-.9-2.08-.9-1.14 0-1.93.66-1.93 1.6 0 1.07.83 1.49 1.64 1.76.1.03.19.06.27.09.46.15.72.23.72.51 0 .16-.09.42-.65.42-.53 0-1.05-.26-1.34-.65l-.83.88c.57.65 1.27.96 2.14.96 1.28 0 2.08-.62 2.08-1.62s-.7-1.35-1.85-1.79m31.46-.02c-.6-.23-.79-.34-.79-.6 0-.24.19-.38.52-.38.53 0 .93.29 1.29.61l.81-.87c-.52-.56-1.3-.9-2.08-.9-1.14 0-1.93.66-1.93 1.6 0 1.07.83 1.49 1.64 1.76.1.03.19.06.27.09.46.15.72.23.72.51 0 .16-.08.42-.65.42-.53 0-1.05-.26-1.34-.65l-.83.88c.57.65 1.27.96 2.14.96 1.28 0 2.08-.62 2.08-1.62s-.7-1.35-1.85-1.79m-27.1-3.84c0 .45-.37.82-.82.82s-.82-.37-.82-.82.37-.82.82-.82.82.37.82.82m-1.77 9.45c.84 0 1.42-.64 1.42-1.9v-5.56h-1.29v5.51c0 .49-.18.73-.49.73a.86.86 0 0 1-.43-.13l-.22 1.17c.32.14.58.19 1 .19Zm6.24-6.94c-.36-.23-.87-.36-1.39-.36-.85 0-1.56.29-1.98.82l.79.79c.21-.28.42-.42.72-.51.11-.03.23-.05.36-.05.16 0 .33.03.45.08.32.13.51.38.51.69v.32s-.46-.19-1.15-.19c-1.09 0-1.92.68-1.92 1.58s.71 1.54 1.69 1.54c.61 0 .99-.25 1.32-.51h.06v.43h1.29v-3.2c0-.63-.25-1.11-.75-1.42m-.53 2.87c0 .27-.57.71-1.25.71-.42 0-.69-.28-.69-.62 0-.22.12-.64.85-.64.54 0 1.09.17 1.09.17v.38Zm3.86-2.98v-.86h-1.29v5.57h1.29v-2.42c0-.97.49-1.63 1.72-1.63v-1.4c-.72.01-1.31.23-1.66.72m5.94 4.31v.43h1.29v-7.72h-1.29v3h-.01c-.28-.33-.94-.53-1.39-.53-1.7 0-2.62 1.43-2.62 2.78 0 1.03.44 1.67.81 2.04.48.47 1.14.74 1.81.74.32 0 .83-.1 1.45-.56m-1.36-.91c-.77 0-1.37-.66-1.37-1.51s.6-1.52 1.37-1.52c.85 0 1.38.79 1.38 1.52 0 .83-.62 1.51-1.37 1.51m7.73-3.56v-.86h-1.29v5.57h1.29v-2.8c0-1.24.71-1.42 1.13-1.42.75 0 1.01.67 1.01 1.3v2.92h1.72v-2.88c0-1.61-.86-2.57-2.3-2.57-1 0-1.36.52-1.37.53m-27.73 2.28c0-1.61-1.09-2.72-2.64-2.72s-2.67 1.17-2.67 2.78 1.14 2.79 2.77 2.79c.95 0 1.78-.35 2.28-.96-.1-.11-.73-.77-.84-.88-.26.3-.74.6-1.33.6-.71 0-1.25-.4-1.42-1.09h3.82c.02-.1.03-.33.03-.51m-3.84-.79c.16-.64.63-1 1.25-1s1.05.34 1.2 1H156Z"/><path d="M0 47.65h16.3v51.89H0z" class="cls-1"/><path d="M0 79.39h38.59v7.29H0z" class="cls-1"/><path d="M21.87 47.65h16.3v51.89h-16.3zm220.75 51.46 4.38-.07V86.67h-21.12c0 6.88 5.98 12.44 16.75 12.44Z" class="cls-1"/><path d="M225.56 46.97v.26h-.37c-.14.42-.41.43-.41.43h-15.94l.14 51.89h16.58V87.97h.58-.58C242.55 87.8 247 83.59 247 68.21v-1.48c0-15.39-4.45-19.59-21.44-19.76Zm.22 32.42h-.22v-20.2c7.44-.02 7.66 20.18.22 20.2ZM63.47 47.65v25.43c0 13.41-1.25 14.44-2.79 14.44s-2.79-1.08-2.79-14.44V47.65H41.17v32.38-1.44c.02 16.97 3.86 21.37 18.6 21.37h1.39c14.74 0 18.59-4.4 18.61-21.37V47.65h-16.3Zm82.59-.43h-1.39c-14.77 0-18.6 4.42-18.6 21.49v9.77c0 17.07 3.83 21.49 18.6 21.49h1.39c14.78 0 18.61-4.42 18.61-21.49v-9.77c0-17.07-3.83-21.49-18.61-21.49Zm-.8 40.82c-1.58 0-2.87-1.08-2.87-14.44s1.28-14.44 2.87-14.44 2.87 1.08 2.87 14.44-1.28 14.44-2.87 14.44Zm44.28-40.39v25.43c0 13.41-1.25 14.44-2.79 14.44s-2.79-1.08-2.79-14.44V47.65h-16.72v32.38-1.44c.02 16.97 3.86 21.37 18.6 21.37h1.39c14.74 0 18.59-4.4 18.61-21.37V47.65h-16.3Zm-91.22 0H82.33v51.89h15.9s.35-42.77.09-51.89Zm8.74 0c-.26 9.16.03 51.89.03 51.89h15.98V47.65h-16.01Z" class="cls-1"/><path d="m104.76 86.68 4.78-39.03h-3.55l-3.18 35.57-3.21-35.57h-3.54l4.8 39.03h3.9zm-39.78 59.97c-2.21 0-3.94-.9-5.2-2.71-1.26-1.81-1.89-4.77-1.89-8.89v-16.19c0-1.67.14-3.18.41-4.53.27-1.35.71-2.51 1.32-3.48.61-.96 1.43-1.7 2.47-2.21 1.03-.51 2.3-.77 3.81-.77 1.61 0 2.9.26 3.88.78.97.52 1.72 1.26 2.24 2.23.52.97.87 2.15 1.05 3.52.18 1.37.27 2.91.27 4.61v2.83h-4.72v-4.51c0-1.77-.17-3.07-.52-3.88s-1.04-1.21-2.07-1.21c-1.12 0-1.9.48-2.33 1.43-.44.95-.65 2.64-.65 5.08v16.37c0 2.68.19 4.59.56 5.74.38 1.15 1.17 1.73 2.37 1.73s1.97-.58 2.41-1.75c.44-1.17.66-3.12.66-5.85v-5h-3v-3.86h7.29v20.15h-2.43l-.7-3.26c-.37 1.17-1.02 2.06-1.94 2.69-.93.63-2.01.94-3.27.94Zm11.54-.8 5.51-37.31h6.21l5.96 37.31h-4.66l-.99-6.86h-6.38l-.9 6.86h-4.75Zm6.06-10.72h5.48l-2.81-19.73h-.06l-2.6 19.73Zm14.76 11.15V112.4h-4.29v-4.29h13.29v4.29h-3.86v33.88h-5.15Zm11.15 0v-37.74h5.15v37.74h-5.15Zm9.44 0v-37.74h4.28l8.14 24.42-.41-10.66v-13.77h4.29v37.74h-3.27l-8.6-24.87.29 9.67v15.2h-4.72Zm20.58 0v-38.16h12.01v4.29h-6.86v12.44h6.43v4.29h-6.43V142h6.86v4.29h-12.01Zm14.77-.43 5.51-37.31H165l5.96 37.31h-4.66l-.99-6.86h-6.38l-.9 6.86h-4.75Zm6.06-10.72h5.48l-2.81-19.73h-.06l-2.6 19.73Zm22.08 11.65c-1.88 0-3.39-.37-4.52-1.11-1.14-.74-1.96-1.86-2.47-3.36-.51-1.5-.76-3.4-.76-5.69v-28.08h4.72v27.97c0 1.23.05 2.3.14 3.2.09.9.33 1.6.73 2.08.39.49 1.04.73 1.94.73s1.54-.24 1.93-.72c.39-.48.62-1.17.71-2.07.08-.9.13-1.97.13-3.2v-28h5.15v28.08c0 2.29-.25 4.19-.74 5.69s-1.3 2.62-2.42 3.36c-1.12.74-2.63 1.11-4.52 1.11ZM63.47 38.65V.48h12.01v4.29h-6.86v11.15h6.43v4.29h-6.43v18.44h-5.15Zm15.43 0V.48h12.01v4.29h-6.86v12.01h6.43v4.29h-6.43v13.29h6.86v4.29H78.9Zm21.72.98c-1.53 0-2.79-.27-3.78-.81a5.698 5.698 0 0 1-2.31-2.33c-.55-1.01-.94-2.22-1.15-3.63-.21-1.41-.32-2.98-.32-4.73V24.5h5.15v3.91c0 2.45.18 4.2.55 5.26.37 1.06 1.13 1.58 2.29 1.58.79 0 1.38-.19 1.77-.57.39-.38.64-.99.75-1.83.11-.84.17-1.94.17-3.32 0-1.61-.3-3.03-.89-4.26-.6-1.22-1.47-2.44-2.62-3.66l-2.63-2.68a31.14 31.14 0 0 1-2.1-2.54c-.67-.9-1.21-1.92-1.63-3.05-.42-1.13-.62-2.41-.62-3.85 0-1.98.22-3.68.67-5.1.44-1.42 1.22-2.51 2.32-3.27s2.64-1.13 4.62-1.13c1.54 0 2.78.26 3.73.78A5.27 5.27 0 0 1 106.77 3c.5.97.85 2.13 1.03 3.47.19 1.35.28 2.86.28 4.53v2.33h-5.15v-2.66c0-1.41-.06-2.58-.18-3.51-.12-.93-.36-1.63-.71-2.1-.36-.47-.89-.7-1.6-.7-.67 0-1.21.16-1.62.48s-.71.82-.89 1.48c-.18.67-.28 1.53-.28 2.58 0 .94.11 1.72.33 2.35.22.63.56 1.23 1.02 1.79.46.56 1.03 1.21 1.69 1.95l2.77 3.06c1.41 1.54 2.53 3.2 3.38 4.99.84 1.79 1.27 3.83 1.27 6.11s-.22 4.1-.66 5.65c-.44 1.55-1.2 2.74-2.28 3.56-1.08.82-2.59 1.23-4.54 1.23Zm12.59-.98V4.77h-4.29V.48h13.29v4.29h-3.86v33.88h-5.15Zm12.01 0V.48h5.15v38.16h-5.15Zm14.32 0L133.38.48h4.78l2.52 16.65 1.91 13.37h.11l1.65-13.37L146.5.48h4.72l-5.64 38.16h-6.05Zm10.93 0L156.11.48h6.35l6.09 38.16h-4.87l-.99-6.86h-6.38l-.9 6.86h-4.95Zm6.27-11.15h5.48l-2.81-19.73h-.06l-2.6 19.73Zm15.22 11.15V.48h4.72v33.88h7.29v4.29h-12.01Z" class="cls-1"/></svg>