<svg xmlns="http://www.w3.org/2000/svg" fill-rule="evenodd" stroke-linejoin="round" stroke-miterlimit="2" clip-rule="evenodd" viewBox="0 0 1350 525"><path fill="#030404" fill-rule="nonzero" d="M557.867 308.1c6.404 13.042 15.43 23.204 27.083 30.496 11.646 7.292 25.346 10.938 41.084 10.938 8.179 0 15.025-.521 20.542-1.563s10.225-2.275 14.12-3.704a277.588 277.588 0 0 1 10.938-3.763l-.233-16.433c-2.005 1.388-5.15 2.875-9.43 4.454-4.283 1.584-9.416 2.934-15.395 4.054-5.98 1.117-12.517 1.675-19.617 1.675-12.575 0-23.321-3.179-32.23-9.545-8.912-6.367-15.724-15.063-20.429-26.1-4.708-11.03-7.058-23.53-7.058-37.496 0-15.275 2.583-28.259 7.754-38.946 5.167-10.683 12.304-18.825 21.409-24.417 9.104-5.596 19.6-8.392 31.479-8.392 8.642 0 15.683.542 21.125 1.621 5.437 1.08 9.72 2.275 12.846 3.588s5.533 2.275 7.233 2.891l2.775-17.129c-2.312-.462-5.304-1.212-8.967-2.254-3.666-1.042-8.391-2.008-14.179-2.896-5.787-.883-13.037-1.329-21.758-1.329-10.725 0-20.85 1.95-30.38 5.846s-17.9 9.604-25.112 17.125c-7.217 7.525-12.887 16.783-17.012 27.78-4.13 10.99-6.192 23.628-6.192 37.9 0 17.362 3.2 32.562 9.604 45.6zm204.442 36.804c7.058-3.087 12.325-6.25 15.796-9.491l3.012-7.638-4.166-3.704c-.93 1.004-3.013 2.413-6.25 4.225-3.242 1.813-7.234 3.454-11.98 4.917-4.745 1.466-9.858 2.2-15.333 2.2-9.258 0-15.933-2.18-20.025-6.538-4.087-4.358-6.133-9.896-6.133-16.608 0-5.788 1.658-10.57 4.979-14.35 3.317-3.78 8.217-6.867 14.696-9.258 3.625-1.467 7.966-2.642 13.02-3.534a160.55 160.55 0 0 1 14.871-1.908c4.863-.383 8.834-.58 11.921-.58l4.167-6.712-4.167-5.32c-4.475 0-9.662.229-15.566.691-5.9.463-11.9 1.254-17.996 2.375-6.096 1.117-11.65 2.642-16.667 4.57-9.025 3.318-15.912 7.926-20.658 13.83-4.742 5.904-7.117 13.096-7.117 21.583 0 7.488 1.68 13.909 5.033 19.271 3.359 5.363 7.988 9.471 13.888 12.325 5.904 2.854 12.633 4.284 20.196 4.284 9.258 0 17.42-1.546 24.479-4.63zm33.158-87.033c0-10.8-1.833-19.17-5.5-25.112-3.662-5.942-8.791-10.071-15.391-12.384-6.596-2.316-14.292-3.47-23.088-3.47-6.946 0-13.658.866-20.137 2.6-6.484 1.737-12.059 3.645-16.725 5.729s-7.734 3.629-9.2 4.629l4.629 13.425c2.237-1.617 5.4-3.275 9.491-4.975 4.088-1.696 8.542-3.104 13.367-4.225 4.82-1.117 9.392-1.68 13.713-1.68 10.108 0 17.65 1.663 22.629 4.98 4.975 3.316 7.462 9.912 7.462 19.791v71.984l1.159.233v18.283h17.591zm89.575 91.892 49.996-131.009h-20.137l-28.238 80.088-12.037 40.042h5.558l-13.196-40.042-29.162-80.088h-20.371l51.617 131.009zm130.259-4.859c7.058-3.087 12.325-6.25 15.796-9.491l3.008-7.638-4.167-3.704c-.925 1.004-3.008 2.413-6.25 4.225-3.237 1.813-7.233 3.454-11.975 4.917-4.746 1.466-9.858 2.2-15.337 2.2-9.259 0-15.934-2.18-20.021-6.538-4.092-4.358-6.133-9.896-6.133-16.608 0-5.788 1.658-10.57 4.975-14.35s8.216-6.867 14.7-9.258c3.625-1.467 7.966-2.642 13.02-3.534 5.05-.883 10.009-1.52 14.871-1.908 4.859-.383 8.834-.58 11.921-.58l4.167-6.712-4.167-5.32c-4.475 0-9.667.229-15.567.691a174.945 174.945 0 0 0-17.995 2.375c-6.096 1.117-11.655 2.642-16.667 4.57-9.03 3.318-15.913 7.926-20.658 13.83s-7.117 13.096-7.117 21.583c0 7.488 1.675 13.909 5.033 19.271 3.354 5.363 7.988 9.471 13.888 12.325 5.904 2.854 12.633 4.284 20.196 4.284 9.258 0 17.416-1.546 24.479-4.63zm33.154-87.033c0-10.8-1.833-19.17-5.496-25.112-3.667-5.942-8.796-10.071-15.392-12.384-6.595-2.316-14.291-3.47-23.087-3.47-6.946 0-13.658.866-20.138 2.6-6.483 1.737-12.058 3.645-16.725 5.729-4.67 2.083-7.737 3.629-9.2 4.629l4.63 13.425c2.237-1.617 5.4-3.275 9.487-4.975 4.092-1.696 8.546-3.104 13.371-4.225 4.82-1.117 9.392-1.68 13.712-1.68 10.109 0 17.65 1.663 22.625 4.98 4.98 3.316 7.467 9.912 7.467 19.791v71.984l1.158.233v18.283h17.588zm61.108-98.37h-18.983v188.183h18.983zm67.988 83.266c3.512-2.504 7.562-4.667 12.154-6.48 4.588-1.812 9.508-2.72 14.754-2.72 4.784 0 8.313.308 10.592.925 2.275.62 3.992 1.237 5.15 1.854v-17.825c-1.158-.462-2.758-.808-4.804-1.042-2.046-.229-4.534-.345-7.463-.345-5.946 0-11.729 1.233-17.362 3.704s-10.492 5.283-14.584 8.45c-4.087 3.162-6.787 5.825-8.1 7.983l1.388 12.5c2.008-2.158 4.767-4.496 8.275-7.004zm-7.117 104.912V245.371l-1.62-8.1-1.155-18.287h-16.204v128.695zm72.85 56.596c1.584.23 3.28.421 5.096.58 1.809.154 3.296.229 4.454.229 1.775 0 3.742-.155 5.905-.463 2.158-.308 4.05-.692 5.67-1.158 8.484-2.313 15.775-7.809 21.871-16.492 6.096-8.679 11.692-20.696 16.784-36.05l44.208-132.167h-20.367l-26.85 88.421-9.954 34.254h5.554l-11.575-34.254-31.016-88.42h-20.138l48.38 128.924h7.87l-1.62-2.545c-2.78 11.804-6.134 20.891-10.072 27.258-3.933 6.362-8.141 10.78-12.612 13.25-4.48 2.467-8.954 3.704-13.425 3.704-1.621 0-3.588-.158-5.904-.462-2.313-.313-4.05-.621-5.209-.93v15.509c.388.308 1.371.579 2.95.812z"/><g fill="none" stroke="#030404" stroke-width="10.167"><path d="M337.959 71.483v128.121l110.962-64.058zm0 0L227 135.546l110.959 64.062z"/><path d="M337.959 71.483 227 7.421v128.125zm-221.917 0L227 135.546V7.42z"/><path d="M116.042 71.483v128.121L227 135.546zm0 0L5.079 135.546l110.963 64.062z"/><path d="m5.08 263.671 110.962-64.067L5.079 135.546zm0 0 110.962 64.063V199.608z"/><path d="M5.08 263.671v128.125l110.962-64.062z"/><path d="M116.042 455.855V327.734L5.079 391.796zm0 0L227 391.796l-110.958-64.062zm0 0L227 519.917v-128.12zm221.917 0L227 391.796v128.121z"/><path d="M337.959 455.855V327.734L227 391.796zm0 0 110.958-64.059-110.958-64.062z"/></g></svg>