<svg xmlns="http://www.w3.org/2000/svg" xml:space="preserve" id="Layer_1" x="0" y="0" style="enable-background:new 0 0 154 87.5" version="1.1" viewBox="0 0 154 87.5"><style>.st2{fill:#253b73}</style><path d="M102 11h-2v29h1.5c4.2 0 5.3-1.6 5.3-6.4V16.9c0-4-1.2-5.9-4.8-5.9zm35-3.4h-.5l-1.7 37.5-1 16.1h6.3l-1-16.1c-.4-6.4-1.4-26.6-2.1-37.5zm-35.5 41.9H100v27h2c3.7 0 4.8-2.1 4.8-6.2V55.4c0-4.3-1.3-5.9-5.3-5.9z" style="fill:none"/><path d="M7.3 87.5c-4 0-7.3-3.3-7.3-7.3V7.3C0 3.3 3.3 0 7.3 0h12.3c-2.4.9-2.7 1.9-2.8 5.2-.4 0-1.2-.3-1 1.7 0 0 .2 1.3.7 1.1-.5 3.5.1 3.8-3.6 4l-.2.3c-3.6.4-4.8-.1-7.9 6.1 0 0-.8 1.9-1 2.7-.8 1.6-2.6 5.1-3.1 7.4-.2.8-.5 1 0 2.1.7 1.6-.5 2 3.6 1.9v.9s-1.1.9-1.3 1.5c-.2.6-.9 3.4-.8 4.7.1 3.5 2.9 6.5 3.8 10l1.9.3c1.1 2.4 5.7 9 6.7 9.9.2.6 1.4 1.4 2.1 2.1.6.5 3.9 4.2 7.9 6.5 0 0 .6 1.3 1 2.4-1.3 1.1 1.2 3 2 6.2 0 .4-.7.9.4 1.9-.1 4.8-1.5 7.4.9 8.7H7.3zm28.8-7.3c0 3.6-2.6 6.6-6.1 7.2h-.1c3.2-1.9 1.2-5.6.6-7.8 0-.1.1-.3.1-.4.2-.3-.2-1-.2-1-.4-.3-.5-2.1-.7-3-.3-1.4.6-3.7.6-4.5 0-.8-.6-1.9-1.7-3.3-.3-.3-1.1-7.1-1.8-8.9-1-2.4-1.3-2-2.5-4.8-.9-2-.2-5-2.3-11.8l.5-.4s-1.5-5.9-2-7.5c-.5-1.6-1.5-1.7-1.5-1.7v-.8c.1-.3 2-5.2 2.1-5.4 0-.1 2.8-2 2.8-1.7.2 1.2 1.3 7.4 1.7 8.4.5 1 2.1 4 2.8 5.9-2.9.7-5 3.3-5 6.3 0 3.6 2.9 6.5 6.5 6.5 2.7 0 5.1-1.6 6-4.1v32.8zm0-37.7c-.2-.5-.5-1-.8-1.5 0-1-1-1-1.3-1.3-.3-.3.3-.5-1.6-.9-.3-.2-.6-2.9-.6-2.9-.3-1.7-.9-2.9-1.8-4.7-.5-.9-.7-3.8-1.2-5.3.3-6.8-1.9-8.7-3.6-9.8-.7-.4-1-.7-1.7-1.1v-.3c-.5-.5-1.5-1-2.4-1.4-.3-.3-.1-.8 0-1.1.6-.1 1.3-1.4 2-2.7.5 0 .7-.5.8-.7.5-.9 1.1-1.6.4-2.1 1.7-3 .6-5-.3-5.1-.4-.7-1-1.2-2.1-1.6h7c4 0 7.3 3.3 7.3 7.3v35.2z" style="fill:#fffffe"/><path d="M72.1 12.7c0 14.6 2.1 42.3 3.7 59.4L65.2 0h-16v87.5h10.3V62.4c0-10.5-.6-29.3-1.5-45l9.8 70.1h14.6V0H72.1v12.7zM102.9 0H88.3v87.5h14.6c9.3 0 15.7-5.4 15.7-17.4V57.4c0-6.7-2.5-10.7-5.9-12.9 3.4-2.1 5.9-6.1 5.9-14.1V17.5c0-12.2-6-17.5-15.7-17.5zm3.9 70.2c0 4.2-1.1 6.2-4.8 6.2h-2v-27h1.5c3.9 0 5.3 1.6 5.3 5.9v14.9zm0-36.6c0 4.8-1.1 6.4-5.3 6.4H100V11h2c3.6 0 4.8 1.8 4.8 5.9v16.7zM145.7 0H129l-8.6 87.5h11.9l1-16.4h7.4l1 16.4H154L145.7 0zm-11.9 61.2 1-16.1 1.7-37.5h.5c.7 10.9 1.7 31.1 2.1 37.5l1 16.1h-6.3z" class="st2"/><path d="M30 51.4c-3.6 0-6.5-2.9-6.5-6.5 0-3.1 2.1-5.6 5-6.3-.7-1.9-2.3-4.9-2.8-5.9-.4-1-1.5-7.2-1.7-8.4-.1-.3-2.8 1.6-2.8 1.7-.2.2-2.1 5.1-2.1 5.4v.8s.9.1 1.5 1.7c.5 1.6 2.2 7.6 2.2 7.6l-.6.5c2.1 6.9 1.3 9.8 2.3 11.8 1.2 2.8 1.5 2.5 2.5 4.8.7 1.7 1.5 8.6 1.8 8.9 1.1 1.4 1.7 2.5 1.7 3.3 0 .8-.9 3.2-.6 4.5.2.8.3 2.6.7 3 0 0 .3.7.2 1 0 .1-.1.3-.1.4.6 2.2 2.6 5.8-.6 7.8H30c3.5-.6 6.1-3.6 6.1-7.2v-33c-1 2.5-3.4 4.1-6.1 4.1zM28.8 0h-7c1.2.4 1.8.9 2.2 1.6.9.1 2 2.1.3 5.1.7.5.2 1.2-.4 2.1-.2.3-.3.8-.8.7-.6 1.3-1.4 2.6-2 2.7-.2.2-.3.8 0 1.1.8.4 1.9.9 2.4 1.4v.3c.7.4 1 .7 1.7 1.1 1.8 1.1 3.9 3.1 3.6 9.8.5 1.5.7 4.4 1.2 5.3.9 1.8 1.5 3 1.8 4.7 0 0 .3 2.7.6 2.9 1.8.4 1.3.6 1.6.9.3.4 1.3.3 1.3 1.3.4.5.6 1 .8 1.5V7.3c0-4-3.3-7.3-7.3-7.3z" style="fill:#b52532"/><path d="M27.9 78.8c-1.2-1-.4-1.5-.4-1.9-.8-3.2-3.3-5.1-2-6.2-.3-1.1-1-2.4-1-2.4-3.9-2.3-7.3-5.9-7.9-6.5-.7-.8-1.9-1.5-2.1-2.1-.9-.9-5.6-7.5-6.7-9.9L6 49.6c-.9-3.5-3.7-6.4-3.8-10 0-1.3.6-4.2.8-4.7.2-.6 1.3-1.5 1.3-1.5v-.9c-4.1.1-2.9-.3-3.6-1.9-.5-1.1-.1-1.4 0-2.1.6-2.3 2.4-5.8 3.1-7.4.2-.8 1-2.7 1-2.7 3.1-6.2 4.2-5.8 7.9-6.1l.2-.3c3.7-.2 3.1-.4 3.6-4-.5.2-.7-1.1-.7-1.1-.3-2 .6-1.6 1-1.7.1-3.3.4-4.3 2.8-5.2H7.3C3.3 0 0 3.3 0 7.3v72.9c0 4 3.3 7.3 7.3 7.3h21.5c-2.4-1.3-1-3.9-.9-8.7z" class="st2"/></svg>