<svg xmlns="http://www.w3.org/2000/svg" width="1326" height="163" fill="none"><path fill="#fff" fill-rule="evenodd" d="M229.891.804c-7.44 1.206-14.926 3.317-20.811 5.867-13.722 5.945-27.969 17.129-34.813 27.328-6.115 9.114-11.705 22.942-13.576 33.59-1.719 9.774-.464 27.024 2.656 36.541 4.975 15.169 17.929 32.762 30.904 41.969 8.795 6.241 20.801 11.366 32.563 13.898 4.965 1.069 7.715 1.266 17.95 1.286 10.566.021 12.882-.145 18.417-1.322 12.33-2.625 20.813-6.052 30.378-12.274 19.098-12.422 29.808-27.701 34.028-48.543l1.319-6.519.402 3.018c2.163 16.242 17.214 39.255 32.999 50.456 8.795 6.241 20.802 11.366 32.563 13.898 4.965 1.069 7.715 1.266 17.95 1.286 10.566.021 12.882-.145 18.417-1.322 12.33-2.625 20.813-6.052 30.379-12.274 18.704-12.166 29.288-26.99 33.89-47.467 1.198-5.33 1.342-7.422 1.342-19.445 0-11.021-.195-14.36-1.073-18.345-5.132-23.307-20.298-42.981-40.803-52.934-6.576-3.192-15.746-6.403-22.584-7.907-6.842-1.505-23.769-2.09-31.729-1.098-19.242 2.4-36.652 10.792-50.591 24.388-9.005 8.784-16.341 22.356-20.127 37.238l-1.307 5.132-.677-3.412c-1.664-8.386-3.642-13.998-7.543-21.399-11.216-21.278-30.204-35.113-56.082-40.86-6.965-1.547-26.909-1.995-34.441-.774Zm696.398 0c-7.44 1.206-14.926 3.317-20.81 5.867-13.723 5.945-27.97 17.129-34.813 27.328-6.116 9.114-11.706 22.942-13.577 33.59-1.719 9.774-.464 27.024 2.656 36.541 4.975 15.169 17.929 32.762 30.904 41.969 8.795 6.241 20.801 11.366 32.563 13.898 4.965 1.069 7.715 1.266 17.95 1.286 10.566.021 12.882-.145 18.417-1.322 12.33-2.625 20.813-6.052 30.378-12.274 18.703-12.166 29.293-26.99 33.893-47.467 1.2-5.33 1.34-7.422 1.34-19.445 0-11.021-.2-14.36-1.07-18.345-5.13-23.307-20.3-42.981-40.806-52.934-6.547-3.178-15.714-6.392-22.584-7.918-6.965-1.547-26.909-1.995-34.441-.774ZM29.226 2.211l-20.432.31-3.036 1.676C.636 7.023-1.133 11.532.709 17.059c1.362 4.083 3.355 5.967 7.91 7.476 8.139 2.697 8.476 3.559 9.214 23.562.762 20.677.22 61.817-.933 70.801-1.515 11.809-3.096 16.215-6.588 18.346-8.472 5.171-10.607 8.802-8.632 14.676.901 2.681 2.62 4.466 5.675 5.896 2.565 1.2 3.077 1.214 52.374 1.387 52.869.185 56.527.046 65.39-2.49 23.06-6.596 36.063-23.904 36.163-48.134.041-10.113-2.159-17.13-7.136-22.762-3.133-3.546-6.452-5.528-15.244-9.105-7.586-3.087-9.746-4.465-9.202-5.875.167-.435 2.475-2.623 5.128-4.862 8.329-7.027 12.218-14.297 12.785-23.897 1.018-17.249-7.075-30.053-22.991-36.376-2.296-.911-5.734-1.936-7.64-2.277-9.1-1.628-36.005-2-87.757-1.214Zm696.398 0-20.432.31-3.036 1.676c-5.122 2.826-6.891 7.335-5.048 12.862 1.361 4.083 3.354 5.967 7.909 7.476 8.139 2.697 8.476 3.559 9.214 23.562.762 20.677.221 61.817-.932 70.801-1.332 10.376-2.873 15.461-5.314 17.533-.586.498-2.275 1.592-3.752 2.431-1.477.84-3.573 2.559-4.657 3.821l-1.971 2.294-.622-1.36c-1.19-2.6-4.373-5.602-7.734-7.291-2.081-1.047-3.58-2.222-3.899-3.059-1.065-2.791-1.754-8.489-2.881-23.828-2.156-29.354-.995-64.113 2.488-74.51 1.129-3.37 1.619-4.013 5.364-7.024 5.352-4.303 7.042-7.44 6.031-11.202-1.267-4.723-4.782-8.842-9.577-11.228-5.188-2.582-11.426-3.443-22.152-3.061-26.438.943-31.37 5.1-49.233 41.487-11.81 24.057-14.971 29.101-17.506 27.933-2.527-1.166-7.157-8.177-12.964-19.635-3.302-6.512-8.602-16.575-11.779-22.36C561.96 9.478 558.473 5.564 549.51 3.315c-4.668-1.171-28.578-1.03-34.99.207-11.274 2.175-17.91 7.85-17.947 15.347-.018 3.713 1.868 6.109 8.559 10.867 3.454 2.456 5.939 4.659 6.338 5.618 2.871 6.904 2.984 31.95.353 77.81-1.253 21.842-2.034 24.592-7.672 27.011-1.801.774-3.878 1.711-4.617 2.083-3.732 1.879-5.243 7.827-2.873 11.301 4.308 6.313 12.966 8.417 32.41 7.877 15.728-.437 20.781-1.767 25.192-6.631 2.357-2.599 3.642-6.111 3.069-8.387-.513-2.033-2.147-3.461-7.776-6.79-2.58-1.526-5.128-3.438-5.662-4.25-.838-1.275-1.035-4.2-1.439-21.502-.436-18.624-.397-20.173.559-22.121 1.308-2.666 3.612-3.12 5.749-1.136 1.822 1.692 3.311 4.62 7.566 14.881 4.002 9.648 17.826 38.636 22.135 46.415l2.988 5.393 2.59.155c3.309.2 5.745-1.249 7.706-4.581.805-1.37 4.857-10.222 9.002-19.671 4.145-9.449 8.999-19.889 10.785-23.2 1.787-3.31 4.196-7.957 5.354-10.327 2.829-5.785 4.765-8.018 6.954-8.018 2.393 0 3.66.81 4.527 2.894.582 1.4.658 5.337.349 18.098-.485 20.056-.491 20.078-6.684 25.152-5.175 4.24-6.56 6.38-6.56 10.139 0 4.642 3.5 7.963 11.085 10.519 6.292 2.121 13.314 2.698 33.74 2.773 17.428.064 18.665-.002 23.022-1.215 6.467-1.802 10.54-3.999 12.738-6.869l1.852-2.419.359 1.628c.446 2.024 2.752 4.273 5.77 5.628 2.151.966 5.57 1.045 52.086 1.208 52.869.185 56.527.046 65.39-2.49 23.06-6.596 36.063-23.904 36.163-48.134.041-10.113-2.159-17.13-7.136-22.762-3.133-3.546-6.452-5.528-15.243-9.105-7.587-3.087-9.747-4.465-9.203-5.875.167-.435 2.475-2.623 5.128-4.862 8.33-7.027 12.218-14.297 12.785-23.897 1.018-17.249-7.075-30.053-22.991-36.376-2.296-.911-5.734-1.936-7.64-2.277-9.1-1.628-36.005-2-87.756-1.214Zm317.226.905c-13.25 1.652-20.08 3.987-24.78 8.472-2.97 2.843-4.1 5.197-4.1 8.552 0 5.416 3.96 9.279 11.59 11.303 2.65.702 5.39 1.643 6.09 2.092.71.449 5.73 6.136 11.15 12.638s12.88 15.206 16.58 19.342c12.82 14.35 15.59 18.347 15.58 22.426-.02 4.293-2.48 7.712-16.84 23.463a5290.061 5290.061 0 0 0-15.06 16.56c-2.5 2.779-5.61 5.66-6.9 6.402-1.28.741-6.35 2.394-11.26 3.672-7.58 1.976-9.11 2.562-10.22 3.918-2.37 2.904-3.06 7.354-1.65 10.641 2.58 6.044 10.84 8.325 32.02 8.844 12.32.303 27.78-.708 33.66-2.201 5.55-1.406 8.89-5.464 8.91-10.833.02-3.173-.6-4.137-6.52-10.148l-4.64-4.718 1.95-2.735c3.93-5.509 5.14-7.43 8.04-12.758 5.21-9.557 6.66-10.081 11.09-4.023 1.5 2.05 3.88 5.275 5.28 7.167 3.68 4.954 8.41 12.911 8.41 14.144 0 .678-1.42 1.965-3.99 3.606-2.2 1.402-4.3 3.114-4.67 3.802-2.39 4.44-1.71 8.009 2.25 11.957 5.28 5.26 13.59 6.588 41.23 6.588 25.41 0 37.75-1.687 45.28-6.187 5.61-3.356 8.78-9.132 7.45-13.569-1.28-4.257-3.52-6.071-9.94-8.044-4.36-1.341-6.31-2.272-8.09-3.875-4.18-3.763-46.9-55.456-49.96-60.457-1.29-2.11-1.44-3.946-.47-5.762 1.07-1.996 16.58-20.988 23-28.17 3.23-3.607 6.54-6.801 7.36-7.099.82-.297 4.47-1.092 8.11-1.766 11.19-2.072 15.22-4.89 15.19-10.627-.03-7.252-5.46-11.468-16.71-12.976-6.57-.88-33.12-.293-39.55.876-9.16 1.663-13.32 5.087-13.32 10.97 0 3.803 2.06 6.959 6.32 9.674 3.97 2.53 4.01 3.201.56 9.923-2.92 5.69-5.64 9.311-7.01 9.311-.5 0-3.71-2.749-7.13-6.109l-6.22-6.109 3.09-3.326c3.74-4.023 4.53-6.197 4.26-11.643-.27-5.227-1.9-7.953-6.15-10.254-5.6-3.04-8.77-3.397-31.75-3.59-15.58-.13-22.69.034-27.52.636Zm-960.821 24.1c3.846 1.08 6.543 3.447 8.275 7.262 1.262 2.782 1.367 3.742 1.367 12.473 0 14.167-1.11 16.559-8.912 19.202-5.523 1.871-9.039 1.924-9.779.146-.624-1.5-1.74-20.859-1.74-30.196 0-10.502 1.28-11.557 10.789-8.888Zm696.398 0c3.846 1.08 6.544 3.447 8.275 7.262 1.262 2.782 1.367 3.742 1.367 12.473 0 14.167-1.11 16.559-8.911 19.202-5.524 1.871-9.04 1.924-9.78.146-.624-1.5-1.74-20.859-1.74-30.196 0-10.502 1.281-11.557 10.789-8.888Zm-535.534 9.563c3.935 1.794 7.018 4.89 11.551 11.598 7.899 11.687 13.84 27.654 16.834 45.242 1.131 6.648.882 15.603-.562 20.206-2.126 6.774-7.223 11.429-14.087 12.867-10.704 2.243-19.548-5.856-28.793-26.365-6.543-14.516-11.208-38.519-9.373-48.216 1.573-8.308 5.627-14.251 11.08-16.243 3.639-1.33 9.28-.945 13.35.911Zm168.056 0c3.935 1.794 7.018 4.89 11.552 11.598 7.899 11.687 13.839 27.654 16.833 45.242 1.132 6.648.883 15.603-.562 20.206-2.126 6.774-7.222 11.429-14.086 12.867-10.705 2.243-19.549-5.856-28.794-26.365-6.542-14.516-11.208-38.519-9.372-48.216 1.573-8.308 5.627-14.251 11.079-16.243 3.64-1.33 9.28-.945 13.35.911Zm528.342 0c3.935 1.794 7.018 4.89 11.551 11.598 7.899 11.687 13.84 27.654 16.834 45.242 1.132 6.648.882 15.603-.562 20.206-2.126 6.774-7.223 11.429-14.086 12.867-10.705 2.243-19.549-5.856-28.794-26.365-6.543-14.516-11.208-38.519-9.372-48.216 1.572-8.308 5.626-14.251 11.079-16.243 3.639-1.33 9.28-.945 13.35.911Zm316.399-.649c-25.56 2.938-46.46 20.963-52.96 45.693-4.32 16.434-2.2 35.268 5.57 49.401 8.82 16.048 23.54 26.775 42.24 30.768 6.3 1.346 19.68 1.344 25.71-.005 26-5.814 44.61-25.293 48.81-51.101 6.1-37.49-18.17-70.742-54.6-74.788-6.19-.688-8.55-.683-14.77.032Zm16.85 16.224c5.54 1.056 12.02 3.581 16.08 6.264 4.38 2.896 10.82 9.77 13.3 14.206 8.36 14.913 8.77 35.659 1 51.234-5.36 10.758-15.02 18.56-27.08 21.878-5.29 1.455-20.02 1.458-25.33.005-12.62-3.456-23.32-12.811-28.39-24.818-4.4-10.396-5.31-24.116-2.4-36.086.53-2.186 2.26-6.67 3.85-9.962 2.52-5.209 3.54-6.628 7.87-10.91 4.94-4.887 9.67-7.93 15.73-10.106 6.87-2.468 17.58-3.19 25.37-1.705Zm-35.27 46.766v30.957h19v-18.918h8.64l4.73 9.459 4.74 9.459h19.33l-.96-1.863c-.53-1.025-3.38-6.284-6.35-11.686-2.96-5.403-5.38-10.046-5.37-10.319.01-.273 1.08-1.141 2.37-1.929 3.02-1.836 5.92-5.596 7.15-9.276 1.44-4.323.94-11.853-1.04-15.699-1.67-3.23-4.99-6.497-8.36-8.207-5.09-2.59-8.23-2.936-26.55-2.936h-17.33V99.12Zm30.27-16.027c3.94 1.897 5.35 6.407 3.34 10.628-1.46 3.062-4.11 4.334-9.75 4.685l-4.86.302V81.921h4.42c3.28 0 5.05.304 6.85 1.172ZM82.641 92.537c12.72 2.055 16.494 6.968 16.506 21.488.005 6.689-.101 7.384-1.6 10.424-1.894 3.843-4.346 6.134-9.149 8.549-6.964 3.502-12.02 2.592-14.315-2.577-1.326-2.988-2.255-14.095-2.263-27.067-.004-7.903.1-8.799 1.188-10.176 1.404-1.778 2.246-1.834 9.633-.64Zm696.399 0c12.719 2.055 16.493 6.968 16.505 21.488.006 6.689-.101 7.384-1.6 10.424-1.894 3.843-4.346 6.134-9.149 8.549-6.964 3.502-12.019 2.592-14.314-2.577-1.327-2.988-2.256-14.095-2.263-27.067-.005-7.903.099-8.799 1.187-10.176 1.404-1.778 2.247-1.834 9.634-.64Z" clip-rule="evenodd"/></svg>