<svg xmlns="http://www.w3.org/2000/svg" data-name="Layer 2" viewBox="0 0 353 273.42"><path d="m352.05 202.22-13.78-8.66a.888.888 0 0 1 0-1.5l3.1-1.95c9.33-5.86 13.64-16.99 10.74-27.69-2.92-10.72-12.91-18.19-24.33-18.19h-40.76c-1.12 0-2.03.91-2.03 2.03v20.54c0 .28-.23.5-.5.5-.14 0-.31-.03-.36-.15l-1.13-2.67c-7.17-15.18-20.25-22.98-35.03-23.49-.5-.02-1-.02-1.49-.02-13.21 0-25.57 5-33.65 15.86-2.92 3.96-5.22 9.51-5.24 9.54-.07.11-.19.18-.33.18-.15 0-.33-.06-.35-.33-.01-.18 0-20.23 0-20.23 0-.92-.71-1.75-1.63-1.76H174.5c-1.12 0-2.03.91-2.03 2.03v19.42c0 1.12.91 2.03 2.03 2.03h12.08c.62 0 1.04.61.84 1.18l-11.72 33.09c-.29.81-1.05 1.35-1.91 1.35h-9.21c-.97 0-1.8-.68-1.99-1.63l-11.05-55.51a2.42 2.42 0 0 0-2.38-1.95H104.3c-1.15 0-2.15.81-2.38 1.94l-11.06 53.33c-.22 1.05-1.76.88-1.76-.19v-52.64c0-1.35-1.09-2.43-2.43-2.43H53.79c-1.32 0-2.46.92-2.73 2.21l-5.97 28.42c-.1.45-.75.45-.84 0l-5.97-28.42a2.792 2.792 0 0 0-2.73-2.21H2.43c-1.34 0-2.43 1.09-2.43 2.43v75.28c0 1.35 1.1 2.43 2.43 2.43h18.62c1.35 0 2.43-1.09 2.43-2.43v-56.41c0-.45.35-.84.81-.88h.08c.42 0 .79.29.87.72l11.1 57.37c.19.95 1.02 1.64 1.99 1.64h12.29c.97 0 1.81-.69 2-1.64l11.21-57.37c.08-.45.49-.75.95-.71.45.05.8.43.8.88v56.4c0 1.35 1.1 2.43 2.43 2.43h44.7c1.16 0 2.16-.81 2.38-1.95l3.25-15.87c.19-.94 1.02-1.62 1.99-1.62h13.51c.97 0 1.79.68 1.99 1.62l3.26 15.87a2.429 2.429 0 0 0 2.38 1.95H189c9.53 0 17.34-7.78 17.88-17.55 0-.15 0-.9.02-1.7 0 0-.05-1.94 0-2.18s.21-.31.36-.31c.13 0 .24.06.32.16v.02c.03.05 2.26 4.84 5.11 8.72 7.54 10.25 20.24 16.22 33.23 16.22s25.62-4.93 33.4-16.42c2.73-4.57 4.82-9.01 4.89-9.17s.18-.3.4-.3.4.18.4.4v20.1c0 1.12.91 2.03 2.03 2.03h22.66c1.12 0 2.03-.91 2.03-2.03v-28.87c0-.99 1.38-1.23 1.72-.31l10.93 29.62c.36.96 1.27 1.59 2.29 1.59h23.92c1.35 0 2.43-1.09 2.43-2.43v-18.02c0-.69-.36-1.34-.95-1.71Zm-219.27-6.98h-11.61a.89.89 0 0 1-.87-1.06l5.82-28.31c.19-.94 1.54-.94 1.74 0l5.79 28.3a.89.89 0 0 1-.87 1.06Zm114.18 9.43c-8.26 0-10.37-8.05-10.37-20.72s2.7-20.27 10.12-20.27c8.6 0 10.24 7.4 10.24 20.81 0 12.65-2.24 20.17-10 20.17Zm82.6-33.52c-.88 2.74-3.56 4.66-6.55 4.66h-9.6a.89.89 0 0 1-.89-.88v-11.99c0-.49.4-.88.89-.88h9.62c2.19 0 4.27 1.05 5.56 2.82 1.31 1.8 1.67 4.09.97 6.28ZM227.96 31.57c-9.1-9.1-16.21-19.43-21.33-30.46-.86-1.85-3.62-1.26-3.62.78v51.9c0 1.34-1.35 2.24-2.6 1.76-13.36-5.2-25.89-13.19-36.67-23.98-9.1-9.1-16.21-19.43-21.33-30.46-.86-1.85-3.62-1.26-3.62.78v50.16c0 1.74-1.4 3.15-3.15 3.15-8.96 0-35.01 0-51.46-.01-2.04 0-2.63 2.76-.78 3.62 11.03 5.12 21.36 13.56 30.45 22.65 10.25 10.25 17.99 22.08 23.19 34.7.65 1.59 2.87 1.59 3.52 0 5.2-12.62 12.93-24.44 23.18-34.69 1.83-1.83 3.7-3.57 5.63-5.23.88-.76 2.2-.76 3.08 0 1.92 1.66 3.79 3.4 5.62 5.22 10.25 10.25 17.99 22.08 23.19 34.7.65 1.59 2.87 1.59 3.52 0 5.2-12.62 12.93-24.44 23.18-34.69 10.25-10.25 22.07-17.97 34.69-23.17 1.59-.65 1.59-2.87 0-3.52-12.62-5.2-24.45-12.94-34.7-23.19ZM90.91 267.25c0-2.66.05-5.67.11-7.44h-.11c-.73 3.21-2.3 8.42-3.8 13.34h-2.89c-1.16-4.3-2.78-10.24-3.46-13.39h-.11c.14 1.84.21 5.08.21 7.76v5.62h-3.1v-15.69h5.05c1.23 4.1 2.6 9.24 3.07 11.57h.02c.39-2.05 2.09-7.56 3.42-11.57h4.87v15.69h-3.28v-5.9Zm20.98-.86h-7.51v3.98h8.29l-.41 2.78h-11.18v-15.69h11.13v2.78h-7.83v3.35h7.51v2.8Zm6.66-8.93h6.24c4.55 0 7.56 3 7.56 7.65s-2.91 8.04-7.72 8.04h-6.08v-15.69Zm3.39 12.96h2.55c3 0 4.35-2.25 4.35-5.3 0-2.57-1.25-4.92-4.33-4.92h-2.57v10.22Zm19.86-12.96v15.69h-3.39v-15.69h3.39Zm9.76 12.07-1.21 3.62H147l5.33-15.69h4.26l5.58 15.69h-3.58l-1.3-3.62h-5.74Zm5.01-2.78c-1.12-3.32-1.82-5.44-2.21-6.85h-.02c-.39 1.55-1.16 4.01-2.05 6.85h4.28Zm22.53 2.78-1.21 3.62h-3.35l5.33-15.69h4.26l5.58 15.69h-3.57l-1.3-3.62h-5.74Zm5.01-2.78c-1.12-3.32-1.82-5.44-2.21-6.85h-.02c-.39 1.55-1.16 4.01-2.05 6.85h4.28Zm23.97 6.4h-2.48c-.14-.48-.23-1.02-.27-1.55-.87 1.18-2.39 1.82-4.58 1.82-4.55 0-7.1-3.46-7.1-7.92 0-4.71 2.75-8.26 7.7-8.26 4.03 0 6.42 2.28 6.78 4.94h-3.39c-.32-1.05-1.14-2.3-3.44-2.3-3.23 0-4.14 2.71-4.14 5.46s1.05 5.37 4.17 5.37c2.89 0 3.44-2.03 3.44-3.42v-.16h-3.44v-2.78h6.76v8.79Zm17.45-6.76h-7.51v3.98h8.29l-.41 2.78h-11.18v-15.69h11.13v2.78h-7.83v3.35h7.51v2.8Zm6.66 6.76v-15.69h4.21c1.96 3.51 5.58 9.88 6.31 11.59h.05c-.18-1.64-.18-4.37-.18-6.94v-4.64h3.07v15.69h-3.98c-1.69-3.07-5.69-10.36-6.49-12.18h-.05c.11 1.37.16 4.6.16 7.4v4.78h-3.1Zm33.67-4.85c-.61 2.94-2.82 5.08-6.76 5.08-4.99 0-7.33-3.53-7.33-7.99s2.44-8.15 7.49-8.15c4.19 0 6.21 2.44 6.6 5.08h-3.39c-.34-1.23-1.18-2.44-3.32-2.44-2.8 0-3.87 2.53-3.87 5.4 0 2.64.93 5.44 3.96 5.44 2.23 0 2.91-1.48 3.21-2.41h3.41Zm9.12 4.85v-5.55c0-.16-.02-.32-.14-.5l-5.42-9.63h3.85c1.21 2.37 2.78 5.51 3.57 7.22.68-1.64 2.39-4.96 3.57-7.22h3.55l-5.49 9.58c-.04.11-.11.18-.11.5v5.6h-3.39Z" data-name="Layer 1" style="fill:#006aff"/></svg>