<svg xmlns="http://www.w3.org/2000/svg" data-name="Layer 2" viewBox="0 0 569.71 80.68"><path d="M11.61 1.06v33.77h3.63L52.76 1.06h13.72L26.15 37.29v3.87l42.32 38.45H53.46L15.01 44.67h-3.4v34.94H0V1.06h11.61Zm108.58 0 31.53 78.55h-11.84l-8.79-22.04H91.57l-8.79 22.04H71.64l31.21-78.55h17.36-.01ZM95.34 48.08h31.9l-14.31-35.65h-3.52L95.34 48.08ZM189.64.01c18.76 0 31.78 8.32 31.78 23.56v6.22h-11.49v-6.22c0-9.27-7.74-14.07-20.28-14.07h-1.75c-12.66 0-20.28 4.69-20.28 11.96v1.29c0 7.62 6.57 9.37 25.09 12.89 20.64 3.99 30.25 9.37 30.25 22.51v1.4c0 12.31-11.37 21.11-33.06 21.11h-1.87c-21.93 0-33.06-8.79-33.06-24.16v-6.45h11.49v6.45c0 10.44 7.5 14.66 21.69 14.66h1.75c14.07 0 21.58-4.1 21.58-11.61v-1.29c0-7.39-6.69-10.32-24.98-13.49-19.23-3.4-30.48-7.97-30.48-21.93v-1.17c0-13.37 12.19-21.69 31.9-21.69h1.75l-.01.01Zm113.05 1.05v9.74h-31.3v68.82h-11.61V10.8H228.6V1.06h74.1Zm20.62 0v68.82h45.37v9.74H311.7V1.06h11.61Zm115.1 0v9.62H389.4v24.26h42.56v9.5H389.4V70h49.01v9.62H377.8V1.06h60.61Zm111.1 8.98h-8.99V1.06h-20.2v8.97h-8.98V1.06h-20.2v22.45h78.56V1.06h-20.2v8.97ZM569.69 28h-17.95v51.62h17.95V28Zm-87.52 51.63h20.2V61.68c0-7.44 6.02-13.46 13.46-13.46s13.46 6.02 13.46 13.46v17.95h17.95V28h-56.11l-8.98 51.62h.01Z" data-name="Layer 1"/></svg>